<svg xmlns="http://www.w3.org/2000/svg" width="50" height="50"><path fill="none" d="M0 0h50v50H0z"/><path d="M44.952 1.537C43.774.517 42.229 0 40.355 0 33.742 0 23.521 6.668 14.92 16.594 3.52 29.751-1.15 43.749 4.288 48.463 5.465 49.483 7.012 50 8.885 50c3.345 0 7.705-1.723 12.388-4.846-2.53-.312-4.865-.981-6.954-1.971-2.827 1.344-5.084 1.661-6.119.764-2.661-2.307 1.114-12.66 10.79-23.826C27.29 10.542 35.505 5.53 39.329 5.53c.733 0 1.309.176 1.71.523 1.107.96 1.069 3.352-.017 6.578a17.708 17.708 0 013.396 5.509c3.568-7.769 3.781-13.789.534-16.603zM13.409 15.285a76.588 76.588 0 016.348-6.508 20.248 20.248 0 00-5.966 2.407c-7.889 5.027-7.918 13.792-7.911 14.41 2.067-3.443 4.607-6.937 7.529-10.309z"/><path d="M30.023 8.75l-5.229-.531c-.436 0-.907.018-1.394.046-2.879 2.38-5.761 5.19-8.481 8.33-3.645 4.207-6.598 8.498-8.756 12.544.041.259.063.532.112.782l1.973 5.288c.152.258.319.501.484.746 1.752-4.365 5.186-9.981 10.257-15.834 4.271-4.929 8.514-8.639 12.153-11.088-.37-.1-.739-.202-1.119-.283z"/><path d="M42.554 18.864a15.725 15.725 0 00-3.013-4.89l-.32-.354c-1.577-1.626-3.494-2.877-5.65-3.766-2.514 1.538-5.542 3.863-8.803 7.046.196-.013.382-.035.593-.035 5.877 0 5.646 5.645 5.646 5.645h-11.41c-5.183 6.199-8.111 11.613-9.424 15.256 1.445 1.553 3.171 2.756 5.063 3.636.419.197.851.377 1.29.545.179.067.361.126.542.188.257.09.517.176.78.255a18.438 18.438 0 001.496.39 22.133 22.133 0 001.977.356c1.099.148 2.207.225 3.305.225 14.382 0 19.008-12.674 19.008-12.674H30.868s-.897 4.138-5.482 4.138c-6.292 0-5.932-6.564-5.932-6.564h24.358c.235-3.405-.166-6.363-1.063-8.893l-.195-.504z"/></svg>