<?xml version="1.0" encoding="utf-8"?><!-- Generator: Adobe Illustrator 15.0.0, SVG Export Plug-In . SVG Version: 6.00 Build 0)  --><!DOCTYPE svg PUBLIC "-//W3C//DTD SVG 1.1//EN" "http://www.w3.org/Graphics/SVG/1.1/DTD/svg11.dtd"><svg xmlns="http://www.w3.org/2000/svg" xmlns:xlink="http://www.w3.org/1999/xlink" viewBox="0 0 50 50" width="50px" height="50px"><rect fill="none" width="50" height="50"/><path d="M44.952,1.537C43.774,0.517,42.229,0,40.355,0C33.742,0,23.521,6.668,14.92,16.594C3.52,29.751-1.15,43.749,4.288,48.463C5.465,49.483,7.012,50,8.885,50c3.345,0,7.705-1.723,12.388-4.846c-2.53-0.312-4.865-0.981-6.954-1.971c-2.827,1.344-5.084,1.661-6.119,0.764C5.539,41.64,9.314,31.287,18.99,20.121c8.3-9.579,16.515-14.591,20.339-14.591c0.733,0,1.309,0.176,1.71,0.523c1.107,0.96,1.069,3.352-0.017,6.578c1.439,1.587,2.587,3.429,3.396,5.509C47.986,10.371,48.199,4.351,44.952,1.537z"/><g><path d="M13.409,15.285c2.058-2.375,4.193-4.549,6.348-6.508c-1.889,0.434-3.927,1.175-5.966,2.407C5.902,16.211,5.873,24.976,5.88,25.594C7.947,22.151,10.487,18.657,13.409,15.285z"/><path d="M30.023,8.75l-5.229-0.531c-0.436,0-0.907,0.018-1.394,0.046c-2.879,2.38-5.761,5.19-8.481,8.33c-3.645,4.207-6.598,8.498-8.756,12.544c0.041,0.259,0.063,0.532,0.112,0.782l1.973,5.288c0.152,0.258,0.319,0.501,0.484,0.746c1.752-4.365,5.186-9.981,10.257-15.834c4.271-4.929,8.514-8.639,12.153-11.088C30.772,8.933,30.403,8.831,30.023,8.75z"/><path d="M42.554,18.864c-0.707-1.82-1.721-3.465-3.013-4.89l-0.32-0.354c-1.577-1.626-3.494-2.877-5.65-3.766c-2.514,1.538-5.542,3.863-8.803,7.046c0.196-0.013,0.382-0.035,0.593-0.035c5.877,0,5.646,5.645,5.646,5.645h-11.41c-5.183,6.199-8.111,11.613-9.424,15.256c1.445,1.553,3.171,2.756,5.063,3.636c0.419,0.197,0.851,0.377,1.29,0.545c0.179,0.067,0.361,0.126,0.542,0.188c0.257,0.09,0.517,0.176,0.78,0.255c0.228,0.069,0.456,0.136,0.686,0.196c0.267,0.07,0.538,0.134,0.81,0.194c0.267,0.061,0.534,0.117,0.802,0.168c0.387,0.071,0.778,0.137,1.175,0.188c1.099,0.148,2.207,0.225,3.305,0.225c14.382,0,19.008-12.674,19.008-12.674H30.868c0,0-0.897,4.138-5.482,4.138c-6.292,0-5.932-6.564-5.932-6.564h24.358c0.235-3.405-0.166-6.363-1.063-8.893L42.554,18.864z"/></g></svg>